<svg id="Lager_1" data-name="Lager 1" xmlns="http://www.w3.org/2000/svg" viewBox="0 0 574.19 191.8"><path d="M120.8,32.2H75.6V150H48.2V32.2H2.6V8H120.8Z" transform="translate(-2.6 -4)"/><path d="M188.6,68.4a53.27,53.27,0,0,0-22,4.7,28.63,28.63,0,0,0-14,13.3V150H126V46.2h24.6V67.6a46.82,46.82,0,0,1,14.3-17,35,35,0,0,1,18.3-6.8,18.38,18.38,0,0,0,3.2.1,4.7,4.7,0,0,1,2.2.3Z" transform="translate(-2.6 -4)"/><path d="M203.4,30.4V4H230V30.4Zm0,119.6V45.2H230V150Z" transform="translate(-2.6 -4)"/><path d="M351.8,150H325V92.05q0-12.42-4.3-18.13T308.4,68.2a24.34,24.34,0,0,0-10.9,2.73,32.81,32.81,0,0,0-9.8,7.52,35.17,35.17,0,0,0-6.7,11V150H254.4V46.2h24.2V65.56a37.59,37.59,0,0,1,10.2-11.27A49.13,49.13,0,0,1,303,47.17a56,56,0,0,1,17.2-2.57q9.8,0,16.1,3.46a23.82,23.82,0,0,1,9.6,9.4,42.21,42.21,0,0,1,4.6,13.15,82.38,82.38,0,0,1,1.3,14.53Z" transform="translate(-2.6 -4)"/><path d="M392.4,46.2l21.79,32.29,1.8,3.76,2-3.76,21.8-32.29H468l-36.4,51.7,37,52.1H440.4L418,117.71l-2-3.37-1.59,3.37L392,150h-28.2l37-51.5L364.4,46.2Z" transform="translate(-2.6 -4)"/><path d="M483.59,170.4c2.4.53,4.63,1,6.7,1.3s3.83.57,5.3.7a10.16,10.16,0,0,0,6.3-1.89q2.5-1.89,4.9-6.71a88.51,88.51,0,0,0,5-13.51L470.39,46.2h27.8l28.2,76.88,24.8-76.88h25.6L532.79,171a38.11,38.11,0,0,1-7.3,12.62,35.16,35.16,0,0,1-12.1,9A39.27,39.27,0,0,1,497,195.8a41.81,41.81,0,0,1-6.4-.5,37,37,0,0,1-7-1.9Z" transform="translate(-2.6 -4)"/></svg>