<?xml version="1.0" encoding="utf-8"?>
<!-- Generator: Adobe Illustrator 25.0.0, SVG Export Plug-In . SVG Version: 6.00 Build 0)  -->
<svg version="1.1" id="Lager_1" xmlns="http://www.w3.org/2000/svg" xmlns:xlink="http://www.w3.org/1999/xlink" x="0px" y="0px"
	 viewBox="0 0 500 500" style="enable-background:new 0 0 500 500;" xml:space="preserve">
<style type="text/css">
	.st0{display:none;fill:url(#SVGID_1_);}
	.st1{display:none;fill:#D11A45;}
	.st2{fill:url(#SVGID_2_);}
	.st3{opacity:0.12;}
	.st4{fill:#FFFFFF;}
	.st5{display:none;fill:#FFFFFF;}
	.st6{display:none;fill:none;stroke:#FFFFFF;stroke-width:12;stroke-miterlimit:10;}
	.st7{display:none;}
	.st8{display:inline;fill:#FFFFFF;}
</style>
<linearGradient id="SVGID_1_" gradientUnits="userSpaceOnUse" x1="0" y1="250" x2="500" y2="250">
	<stop  offset="0" style="stop-color:#FFFFFF"/>
	<stop  offset="1" style="stop-color:#000000"/>
</linearGradient>
<rect class="st0" width="500" height="500"/>
<rect class="st1" width="500" height="500"/>
<linearGradient id="SVGID_2_" gradientUnits="userSpaceOnUse" x1="414.2761" y1="534.5346" x2="85.7239" y2="-34.5346">
	<stop  offset="0" style="stop-color:#D11A45"/>
	<stop  offset="1" style="stop-color:#5C0117"/>
</linearGradient>
<path class="st2" d="M464.7,500H35.3C15.9,500,0,484.1,0,464.7V35.3C0,15.9,15.9,0,35.3,0h429.4C484.1,0,500,15.9,500,35.3v429.4
	C500,484.1,484.1,500,464.7,500z"/>
<g class="st3">
	<path class="st4" d="M443.5,131.5c-12.1-43.6-40.4-70.3-84.4-80.2c-3.9-0.9-8-1.3-11.9-1.9h-190c-5.8,1-11.8,1.6-17.5,3.2
		c-43.5,12.1-70.3,40.2-80,84.3c-1.6,7.1-2,14.6-2,21.9c-0.1,56.8-0.2,113.5,0,170.3c0.1,38,15.6,68.3,46.5,90.4
		c18.3,13,39,19.1,61.4,19.1c57.8,0.1,115.6,0.6,173.3-0.2c46.3-0.7,79.6-23.1,99-65.1c4.3-9.4,5.6-20.1,8.2-30.2
		c0.3-1.3,0.5-2.7,0.7-4.1V149C445.6,143.1,445.1,137.1,443.5,131.5z M412.1,328.8c0,33.6-18.6,60.6-49.7,71.1
		c-8,2.7-16.9,3.9-25.3,3.9c-56.7,0.3-113.5,0.2-170.3,0.1c-33.4-0.1-60-18.8-71-49.6c-3-8.4-3.9-17.2-3.9-26.2
		c0-28.1,0-56.2,0-84.4s0-56.5,0-84.7c0-16.3,3.9-31.4,13.6-44.6c15.1-20.7,35.8-30.7,61.3-30.8c56.9-0.1,113.7-0.1,170.6,0
		c33.4,0.1,60.3,18.8,70.6,49.8c2.7,8,3.8,16.8,3.9,25.3C412.3,215.6,412.2,272.3,412.1,328.8z"/>
	<path class="st4" d="M252.2,143.7c-55-0.2-100.4,45.1-100.4,100.2s45.3,100.4,100.4,100.3c55.1-0.1,100.4-45.5,100.2-100.5
		C352.2,188.7,307.2,143.8,252.2,143.7z M252,309.6c-36.3-0.1-65.7-29.6-65.6-65.8c0.1-36.3,29.6-65.7,65.8-65.6
		c36.3,0.1,65.7,29.6,65.6,65.8C317.7,280.3,288.2,309.7,252,309.6z"/>
	<path class="st4" d="M381.9,139.8c-0.1,13.8-11.5,25.1-25.2,25.1c-13.9,0.1-25.5-11.5-25.4-25.3s11.4-25,25.3-25.1
		C370.4,114.4,382,126,381.9,139.8z"/>
</g>
<path class="st5" d="M187,169.2h-19.5V220h-11.8v-50.8H136v-10.4h51V169.2z"/>
<path class="st5" d="M216.3,184.8c-3.3,0-6.5,0.7-9.5,2c-2.6,1.2-4.8,3.2-6,5.7v27.4h-11.5v-44.8h10.6v9.2c1.4-2.9,3.6-5.4,6.2-7.3
	c2.3-1.7,5-2.7,7.9-2.9c0.5,0.1,0.9,0.1,1.4,0c0.3,0,0.6,0,0.9,0.1L216.3,184.8L216.3,184.8z"/>
<path class="st5" d="M222.7,168.4V157h11.5v11.4H222.7z M222.7,220v-45.2h11.5V220H222.7z"/>
<path class="st5" d="M286.7,220h-11.6v-25c0-3.6-0.6-6.2-1.9-7.8s-3-2.5-5.3-2.5c-1.6,0-3.2,0.4-4.7,1.2c-1.6,0.8-3,1.9-4.2,3.2
	c-1.2,1.4-2.2,3-2.9,4.7v26.1h-11.5v-44.8H255v8.4c1.1-1.9,2.6-3.6,4.4-4.9c1.9-1.3,3.9-2.4,6.1-3.1c2.4-0.8,4.9-1.1,7.4-1.1
	c2.8,0,5.1,0.5,6.9,1.5c1.7,0.9,3.2,2.3,4.1,4.1c1,1.8,1.6,3.7,2,5.7c0.4,2.1,0.6,4.2,0.6,6.3v28L286.7,220L286.7,220z"/>
<path class="st5" d="M304.2,175.3l9.4,13.9l0.8,1.6l0.9-1.6l9.4-13.9h12.1l-15.7,22.3l16,22.5h-12.2l-9.7-13.9l-0.9-1.5l-0.7,1.5
	l-9.7,13.9h-12.1l16-22.2l-15.7-22.6H304.2z"/>
<path class="st5" d="M343.5,228.8c1,0.2,2,0.4,2.9,0.6c0.9,0.1,1.7,0.2,2.3,0.3c1,0,1.9-0.2,2.7-0.8c0.7-0.5,1.4-1.5,2.1-2.9
	c0.9-1.9,1.6-3.8,2.2-5.8l-17.9-44.9h12l12.2,33.2l10.7-33.2h11l-19,53.8c-0.7,2-1.8,3.8-3.1,5.4c-1.4,1.7-3.2,3-5.2,3.9
	c-2.2,1-4.6,1.4-7.1,1.4c-0.9,0-1.8-0.1-2.8-0.2c-1-0.2-2-0.4-3-0.8L343.5,228.8L343.5,228.8z"/>
<path class="st6" d="M469,120c-13.7-49.4-45.7-79.6-95.7-90.8c-4.4-1-9-1.5-13.5-2.2H144.5c-6.6,1.2-13.4,1.8-19.8,3.6
	C75.4,44.3,45,76.2,34,126.1c-1.8,8.1-2.2,16.5-2.3,24.8c-0.2,64.3-0.2,128.6,0,192.9c0.1,43,17.7,77.4,52.7,102.4
	c20.7,14.8,44.2,21.6,69.5,21.6c65.5,0.1,130.9,0.7,196.4-0.2c52.4-0.8,90.2-26.2,112.1-73.7c4.9-10.6,6.3-22.8,9.3-34.3
	c0.4-1.5,0.6-3.1,0.8-4.6V139.8C471.4,133.2,470.8,126.4,469,120z M433.5,343.6c0,38.1-21,68.7-56.3,80.6c-9,3-19.1,4.4-28.7,4.4
	c-64.3,0.4-128.6,0.3-192.9,0.2c-37.9-0.1-67.9-21.3-80.4-56.2c-3.4-9.6-4.4-19.5-4.4-29.6c0-31.8,0-63.7,0-95.6c0-32,0-64,0-96
	c0-18.5,4.4-35.5,15.4-50.5c17.1-23.4,40.5-34.8,69.4-34.9c64.4-0.1,128.9-0.1,193.3,0c37.8,0.1,68.3,21.3,80,56.4
	c3,9,4.3,19.1,4.4,28.7C433.7,215.3,433.6,279.5,433.5,343.6z"/>
<g class="st7">
	<path class="st8" d="M92.1,266.2v-51.5h5.1v51.5H92.1z"/>
	<path class="st8" d="M140.8,266.2h-4.9v-21c0-4.4-0.7-7.6-2-9.7c-1.3-2-3.4-3.1-6.2-3.1c-1.9,0-3.8,0.5-5.7,1.4
		c-1.9,0.9-3.5,2.2-5,3.8c-1.4,1.6-2.5,3.4-3.1,5.5v23H109v-37.6h4.5v8.6c1-1.8,2.3-3.4,4-4.8c1.6-1.4,3.5-2.4,5.6-3.2
		s4.2-1.2,6.5-1.2c2.1,0,3.8,0.4,5.3,1.2c1.4,0.8,2.6,1.9,3.5,3.3c0.9,1.4,1.5,3.1,1.9,5.1s0.6,4.2,0.6,6.7v22H140.8z"/>
	<path class="st8" d="M163.7,266.9c-3.1,0-6-0.5-8.6-1.5c-2.7-1-5-2.6-6.9-4.6l2-3.5c2.1,2,4.3,3.4,6.4,4.3c2.1,0.9,4.4,1.3,6.8,1.3
		c2.9,0,5.3-0.6,7.2-1.8c1.8-1.2,2.8-2.9,2.8-5.1c0-1.5-0.4-2.6-1.3-3.4c-0.9-0.8-2.2-1.4-3.8-1.9c-1.7-0.5-3.7-1-6-1.6
		c-2.6-0.7-4.8-1.5-6.6-2.3s-3.1-1.8-4-3s-1.3-2.8-1.3-4.8c0-2.5,0.6-4.5,1.8-6.1s2.9-2.8,5.1-3.7c2.1-0.8,4.6-1.3,7.2-1.3
		c2.9,0,5.5,0.5,7.7,1.4s4,2.2,5.4,3.8l-2.4,3.3c-1.4-1.5-3-2.7-4.8-3.4c-1.9-0.7-3.9-1.1-6.2-1.1c-1.5,0-3,0.2-4.4,0.6
		c-1.4,0.4-2.5,1.1-3.4,2s-1.3,2.2-1.3,3.9c0,1.3,0.3,2.4,1,3.1c0.7,0.7,1.7,1.4,3,1.9c1.4,0.5,3,1,5,1.6c2.9,0.8,5.3,1.5,7.5,2.3
		c2.1,0.8,3.8,1.8,4.9,3.1c1.2,1.2,1.7,3,1.7,5.3c0,3.5-1.3,6.2-4,8.2C171.6,265.9,168.1,266.9,163.7,266.9z"/>
	<path class="st8" d="M204.4,264.7c-0.4,0.1-1,0.4-1.8,0.8s-1.8,0.7-3,1s-2.4,0.4-3.8,0.4c-1.4,0-2.7-0.3-4-0.8s-2.2-1.3-2.9-2.4
		s-1.1-2.4-1.1-4v-27.1h-5.2v-3.9h5.2v-12.8h4.9v12.8h8.7v3.9h-8.7v25.8c0.1,1.4,0.6,2.4,1.5,3.1s1.9,1,3.1,1c1.4,0,2.6-0.2,3.7-0.7
		c1.1-0.5,1.8-0.8,2-1L204.4,264.7z"/>
	<path class="st8" d="M207.6,255.4c0-2.4,0.7-4.4,2-6.1c1.4-1.7,3.2-3,5.6-4c2.4-0.9,5.2-1.4,8.3-1.4c1.8,0,3.7,0.1,5.7,0.4
		c2,0.3,3.7,0.7,5.3,1.3v-3.2c0-3.2-0.9-5.7-2.8-7.6c-1.9-1.9-4.5-2.8-7.8-2.8c-2,0-4,0.4-6,1.1c-2,0.8-4,1.8-6.1,3.3l-1.9-3.5
		c2.5-1.7,4.9-3,7.2-3.8c2.4-0.8,4.8-1.3,7.2-1.3c4.6,0,8.3,1.3,11,4c2.7,2.6,4.1,6.3,4.1,10.9v17.4c0,0.7,0.1,1.2,0.4,1.5
		c0.3,0.3,0.7,0.5,1.4,0.5v3.9c-0.5,0-1,0.1-1.4,0.1s-0.7,0-0.9,0c-1.2,0-2.1-0.4-2.8-1.2c-0.6-0.7-1-1.5-1-2.3l-0.1-2.8
		c-1.7,2.2-3.9,3.9-6.6,5c-2.7,1.2-5.5,1.8-8.3,1.8c-2.4,0-4.6-0.5-6.6-1.5s-3.5-2.4-4.6-4.2C208.1,259.4,207.6,257.5,207.6,255.4z
		 M232.9,258.3c0.5-0.7,0.9-1.3,1.2-1.9s0.4-1.2,0.4-1.7v-5.5c-1.6-0.6-3.3-1.1-5.1-1.4c-1.8-0.3-3.5-0.5-5.3-0.5
		c-3.5,0-6.4,0.7-8.6,2.1c-2.2,1.4-3.3,3.3-3.3,5.7c0,1.4,0.4,2.7,1.1,3.9c0.7,1.2,1.8,2.2,3.2,3s3,1.2,4.9,1.2
		c2.4,0,4.6-0.5,6.6-1.4C230.2,260.9,231.7,259.7,232.9,258.3z"/>
	<path class="st8" d="M265.3,266.9c-2.6,0-4.9-0.5-7.1-1.6c-2.2-1.1-4-2.5-5.6-4.3s-2.8-3.9-3.7-6.2s-1.3-4.7-1.3-7.2
		c0-2.7,0.4-5.2,1.3-7.5c0.8-2.3,2.1-4.4,3.6-6.3c1.6-1.8,3.4-3.3,5.5-4.3c2.1-1,4.5-1.6,7.1-1.6c3.2,0,6.1,0.8,8.4,2.4
		c2.4,1.6,4.4,3.6,6.1,6.1v-7.9h4.4v37.8c0,3.5-0.8,6.4-2.5,8.8s-3.9,4.2-6.7,5.4c-2.8,1.2-5.9,1.8-9.2,1.8c-4.3,0-7.8-0.8-10.4-2.3
		c-2.7-1.5-4.8-3.6-6.5-6.2l3-2.4c1.5,2.4,3.5,4.1,6,5.3c2.5,1.2,5.1,1.7,7.9,1.7c2.5,0,4.7-0.4,6.8-1.3c2.1-0.9,3.7-2.2,4.9-3.9
		c1.2-1.8,1.8-4,1.8-6.6v-7.5c-1.5,2.4-3.4,4.3-5.9,5.7C270.6,266.2,268,266.9,265.3,266.9z M266.6,262.8c1.5,0,2.9-0.3,4.3-0.8
		s2.6-1.2,3.8-2.1c1.2-0.9,2.1-1.9,2.9-3s1.3-2.2,1.5-3.4v-11.7c-0.7-1.8-1.8-3.5-3.1-4.9c-1.4-1.4-2.9-2.5-4.6-3.3
		s-3.5-1.2-5.3-1.2c-2.1,0-4,0.4-5.7,1.3c-1.7,0.9-3.1,2.1-4.2,3.6s-2,3.1-2.6,5c-0.6,1.8-0.9,3.7-0.9,5.5c0,2,0.4,3.9,1.1,5.8
		c0.7,1.8,1.7,3.4,3,4.9c1.3,1.4,2.8,2.5,4.5,3.3C262.9,262.4,264.7,262.8,266.6,262.8z"/>
	<path class="st8" d="M313.7,232.8c-3.3,0.1-6.2,1-8.7,2.8c-2.5,1.7-4.2,4.1-5.3,7.2v23.5h-4.9v-37.6h4.6v8.9c1.3-2.7,3-4.8,5.2-6.5
		c2.1-1.6,4.4-2.6,6.8-2.8c0.5,0,0.9-0.1,1.3-0.1s0.7,0,0.9,0.1v4.5L313.7,232.8L313.7,232.8z"/>
	<path class="st8" d="M317.1,255.4c0-2.4,0.7-4.4,2-6.1c1.4-1.7,3.2-3,5.6-4c2.4-0.9,5.2-1.4,8.3-1.4c1.8,0,3.7,0.1,5.7,0.4
		c2,0.3,3.7,0.7,5.3,1.3v-3.2c0-3.2-0.9-5.7-2.8-7.6c-1.9-1.9-4.5-2.8-7.8-2.8c-2,0-4,0.4-6,1.1c-2,0.8-4,1.8-6.1,3.3l-1.9-3.5
		c2.5-1.7,4.9-3,7.2-3.8c2.4-0.8,4.8-1.3,7.2-1.3c4.6,0,8.3,1.3,11,4c2.7,2.6,4.1,6.3,4.1,10.9v17.4c0,0.7,0.1,1.2,0.4,1.5
		s0.7,0.5,1.4,0.5v3.9c-0.5,0-1,0.1-1.4,0.1s-0.7,0-0.9,0c-1.2,0-2.1-0.4-2.8-1.2c-0.6-0.7-1-1.5-1-2.3l-0.1-2.8
		c-1.7,2.2-3.9,3.9-6.6,5c-2.7,1.2-5.5,1.8-8.3,1.8c-2.4,0-4.6-0.5-6.6-1.5s-3.5-2.4-4.6-4.2S317.1,257.5,317.1,255.4z M342.4,258.3
		c0.5-0.7,0.9-1.3,1.2-1.9c0.3-0.6,0.4-1.2,0.4-1.7v-5.5c-1.6-0.6-3.3-1.1-5.1-1.4c-1.8-0.3-3.5-0.5-5.3-0.5c-3.5,0-6.4,0.7-8.6,2.1
		c-2.2,1.4-3.3,3.3-3.3,5.7c0,1.4,0.4,2.7,1.1,3.9c0.7,1.2,1.8,2.2,3.2,3c1.4,0.8,3,1.2,4.9,1.2c2.4,0,4.6-0.5,6.6-1.4
		C339.7,260.9,341.3,259.7,342.4,258.3z"/>
	<path class="st8" d="M415.9,266.2H411v-21c0-4.4-0.7-7.6-2.1-9.6c-1.4-2.1-3.5-3.1-6.2-3.1c-2.9,0-5.4,1-7.6,3s-3.8,4.6-4.7,7.8
		v22.9h-4.9v-21c0-4.4-0.7-7.6-2-9.7c-1.4-2-3.4-3.1-6.2-3.1c-2.8,0-5.3,1-7.6,2.9c-2.3,2-3.9,4.6-4.8,7.8v23H360v-37.6h4.5v8.6
		c1.6-2.9,3.6-5.2,6.1-6.8s5.3-2.4,8.3-2.4c3.1,0,5.7,0.9,7.6,2.7s3.1,4.1,3.6,7c1.7-3.2,3.8-5.6,6.3-7.2c2.4-1.6,5.2-2.5,8.3-2.5
		c2.1,0,3.9,0.4,5.4,1.2s2.7,1.9,3.6,3.3c0.9,1.4,1.5,3.1,2,5.1c0.4,2,0.6,4.2,0.6,6.7v22H415.9z"/>
</g>
<g class="st7">
	<path class="st8" d="M165.6,356.9v-52.5h22.3c2.4,0,4.6,0.5,6.7,1.5c2,1,3.8,2.3,5.3,4s2.6,3.6,3.4,5.6c0.8,2.1,1.2,4.2,1.2,6.4
		c0,2.9-0.7,5.7-2,8.4c-1.3,2.7-3.2,4.9-5.7,6.5c-2.4,1.7-5.3,2.5-8.5,2.5h-12.5v17.6H165.6z M175.8,330.3h11.8c1.3,0,2.4-0.3,3.4-1
		s1.8-1.7,2.3-3c0.6-1.3,0.9-2.8,0.9-4.5c0-1.8-0.3-3.4-1-4.6c-0.7-1.3-1.5-2.2-2.6-2.9c-1.1-0.7-2.2-1-3.4-1h-11.4V330.3z"/>
	<path class="st8" d="M227.8,357.6c-3.2,0-6-0.5-8.5-1.6s-4.6-2.5-6.4-4.4c-1.8-1.9-3.1-4-4-6.3c-0.9-2.4-1.4-4.9-1.4-7.5
		c0-2.7,0.5-5.3,1.4-7.7c0.9-2.4,2.2-4.5,4-6.3s3.9-3.3,6.4-4.3s5.3-1.6,8.4-1.6c3.2,0,6.1,0.5,8.5,1.6c2.5,1.1,4.6,2.5,6.4,4.3
		c1.8,1.8,3.1,3.9,4.1,6.3c0.9,2.4,1.4,5,1.4,7.7c0,2.6-0.5,5.1-1.4,7.5s-2.3,4.5-4.1,6.3c-1.8,1.9-3.9,3.3-6.4,4.4
		C233.8,357.1,231,357.6,227.8,357.6z M217.7,337.8c0,2.2,0.4,4.1,1.3,5.9c0.9,1.7,2.1,3.1,3.7,4.1c1.6,1,3.3,1.5,5.1,1.5
		c1.9,0,3.6-0.5,5.1-1.5s2.8-2.3,3.7-4.1c0.9-1.7,1.4-3.7,1.4-5.9c0-2.2-0.5-4.1-1.4-5.8c-0.9-1.7-2.1-3.1-3.7-4.1s-3.3-1.5-5.2-1.5
		s-3.6,0.5-5.1,1.5s-2.7,2.3-3.6,4.1C218.1,333.6,217.7,335.6,217.7,337.8z"/>
	<path class="st8" d="M269,357.6c-3.3,0-6.5-0.5-9.5-1.6s-5.6-2.7-7.7-4.8l3.6-6.4c2.3,1.9,4.5,3.3,6.7,4.1c2.2,0.9,4.4,1.3,6.5,1.3
		c1.9,0,3.5-0.3,4.6-1s1.7-1.7,1.7-3c0-1-0.3-1.7-1-2.2c-0.6-0.5-1.6-1-2.8-1.3c-1.2-0.4-2.7-0.8-4.4-1.3c-2.9-0.9-5.2-1.8-7.1-2.7
		c-1.9-0.9-3.3-2-4.3-3.4c-1-1.3-1.5-3.1-1.5-5.1c0-2.5,0.7-4.7,2-6.5s3.1-3.3,5.5-4.3c2.3-1,5.1-1.5,8.3-1.5c2.8,0,5.4,0.4,7.8,1.3
		c2.5,0.9,4.7,2.3,6.7,4.2l-4.1,6.4c-1.9-1.6-3.8-2.7-5.6-3.4c-1.8-0.7-3.6-1.1-5.4-1.1c-1,0-2,0.1-2.9,0.4
		c-0.9,0.2-1.7,0.6-2.2,1.2c-0.6,0.6-0.9,1.3-0.9,2.4c0,0.9,0.3,1.6,0.8,2.1s1.3,1,2.4,1.4s2.4,0.8,3.9,1.3c3.1,0.9,5.7,1.8,7.8,2.7
		c2.1,0.9,3.7,2,4.8,3.4c1.1,1.4,1.7,3.2,1.7,5.5c0,3.8-1.4,6.8-4.2,8.9C277.5,356.6,273.8,357.6,269,357.6z"/>
	<path class="st8" d="M314.3,355c-0.9,0.4-1.9,0.8-3.1,1.2c-1.2,0.4-2.4,0.8-3.8,1c-1.4,0.3-2.7,0.4-4.1,0.4c-1.9,0-3.6-0.3-5.1-1
		c-1.5-0.6-2.8-1.6-3.7-3c-0.9-1.4-1.4-3.2-1.4-5.5V326h-5v-7.5h5v-12.6h10v12.6h8.1v7.5h-8.1v18.8c0,1.3,0.4,2.3,1.1,2.9
		s1.6,0.9,2.7,0.9c1,0,2-0.2,3-0.6s1.8-0.7,2.4-1L314.3,355z"/>
	<path class="st8" d="M333.8,357.6c-3.3,0-6.5-0.5-9.5-1.6s-5.6-2.7-7.7-4.8l3.6-6.4c2.3,1.9,4.5,3.3,6.7,4.1
		c2.2,0.9,4.4,1.3,6.5,1.3c1.9,0,3.5-0.3,4.6-1s1.7-1.7,1.7-3c0-1-0.3-1.7-1-2.2c-0.6-0.5-1.6-1-2.8-1.3c-1.2-0.4-2.7-0.8-4.4-1.3
		c-2.9-0.9-5.2-1.8-7.1-2.7c-1.9-0.9-3.3-2-4.3-3.4c-1-1.3-1.5-3.1-1.5-5.1c0-2.5,0.7-4.7,2-6.5s3.1-3.3,5.5-4.3
		c2.3-1,5.1-1.5,8.3-1.5c2.8,0,5.4,0.4,7.8,1.3c2.5,0.9,4.7,2.3,6.7,4.2l-4.1,6.4c-1.9-1.6-3.8-2.7-5.6-3.4
		c-1.8-0.7-3.6-1.1-5.4-1.1c-1,0-2,0.1-2.9,0.4c-0.9,0.2-1.7,0.6-2.2,1.2c-0.6,0.6-0.9,1.3-0.9,2.4c0,0.9,0.3,1.6,0.8,2.1
		s1.3,1,2.4,1.4s2.4,0.8,3.9,1.3c3.1,0.9,5.7,1.8,7.8,2.7c2.1,0.9,3.7,2,4.8,3.4c1.1,1.4,1.7,3.2,1.7,5.5c0,3.8-1.4,6.8-4.2,8.9
		C342.3,356.6,338.5,357.6,333.8,357.6z"/>
</g>
<g>
	<g class="st7">
		<path class="st8" d="M208,381v-49.7h21c2.3,0,4.4,0.5,6.3,1.4c1.9,0.9,3.6,2.2,5,3.8c1.4,1.6,2.5,3.4,3.3,5.3s1.2,4,1.2,6
			c0,2.8-0.6,5.4-1.9,7.9c-1.3,2.5-3,4.6-5.4,6.2c-2.3,1.6-5,2.4-8.1,2.4h-11.8V381H208z M217.6,355.9h11.2c1.2,0,2.3-0.3,3.2-1
			s1.7-1.6,2.2-2.8c0.5-1.2,0.8-2.6,0.8-4.2c0-1.7-0.3-3.2-0.9-4.4c-0.6-1.2-1.4-2.1-2.5-2.7c-1-0.6-2.1-0.9-3.3-0.9h-10.8v16H217.6
			z"/>
		<path class="st8" d="M272.6,352.4c-2.9,0-5.5,0.6-7.7,1.6s-3.9,2.6-4.9,4.7V381h-9.3v-36.3h8.6v7.5c1.3-2.5,3-4.5,5-6
			c2-1.4,4.2-2.2,6.4-2.4c0.5,0,0.8,0.1,1.1,0c0.3,0,0.5,0,0.8,0.1L272.6,352.4L272.6,352.4z"/>
		<path class="st8" d="M294.7,381.7c-3,0-5.7-0.5-8-1.5c-2.4-1-4.4-2.4-6.1-4.2c-1.7-1.8-3-3.7-3.8-6c-0.9-2.2-1.3-4.6-1.3-7.1
			c0-2.6,0.4-5,1.3-7.3s2.1-4.3,3.8-6c1.7-1.7,3.7-3.1,6.1-4.1s5-1.5,8-1.5s5.7,0.5,8.1,1.5s4.4,2.4,6.1,4.1s3,3.7,3.8,6
			c0.9,2.3,1.3,4.7,1.3,7.3c0,2.5-0.4,4.9-1.3,7.1s-2.2,4.2-3.8,6c-1.7,1.8-3.7,3.1-6.1,4.2C300.4,381.2,297.7,381.7,294.7,381.7z
			 M285.1,362.9c0,2.1,0.4,3.9,1.3,5.6c0.8,1.6,2,2.9,3.5,3.8s3.1,1.4,4.9,1.4s3.4-0.5,4.8-1.4s2.6-2.2,3.5-3.8s1.3-3.5,1.3-5.6
			s-0.4-3.9-1.3-5.5s-2-2.9-3.5-3.8c-1.4-0.9-3.1-1.4-4.9-1.4s-3.4,0.5-4.8,1.4s-2.6,2.2-3.4,3.8C285.5,359,285.1,360.8,285.1,362.9
			z"/>
	</g>
</g>
<g>
	<g class="st7">
		<path class="st8" d="M183.5,373.7v-67.5h28.6c3.1,0,6,0.6,8.6,1.9s4.9,3,6.8,5.1c1.9,2.2,3.4,4.6,4.4,7.2s1.6,5.4,1.6,8.2
			c0,3.7-0.9,7.3-2.6,10.8c-1.7,3.5-4.1,6.3-7.3,8.4c-3.1,2.2-6.8,3.2-11,3.2h-16.1v22.6L183.5,373.7L183.5,373.7z M196.6,339.6
			h15.2c1.6,0,3.1-0.4,4.4-1.3c1.3-0.9,2.3-2.2,3-3.8c0.7-1.7,1.1-3.6,1.1-5.7c0-2.3-0.4-4.3-1.3-5.9c-0.9-1.6-2-2.8-3.3-3.7
			c-1.4-0.9-2.8-1.3-4.4-1.3h-14.6L196.6,339.6L196.6,339.6z"/>
		<path class="st8" d="M271.1,335c-3.9,0.1-7.4,0.8-10.4,2.2c-3,1.4-5.3,3.5-6.7,6.3v30.2h-12.6v-49.3h11.7v10.2
			c1.8-3.4,4-6.1,6.8-8.1s5.7-3,8.7-3.2c0.6,0.1,1.1,0.1,1.5,0c0.4,0,0.7,0,1,0.1V335z"/>
		<path class="st8" d="M301.2,374.7c-4.1,0-7.7-0.7-10.9-2.1c-3.2-1.4-5.9-3.3-8.2-5.6c-2.3-2.4-4-5.1-5.2-8.1s-1.8-6.2-1.8-9.6
			c0-3.5,0.6-6.8,1.8-9.9c1.2-3.1,2.9-5.8,5.1-8.1c2.2-2.3,5-4.2,8.2-5.5s6.8-2,10.8-2c4.1,0,7.8,0.7,11,2s5.9,3.2,8.2,5.5
			c2.3,2.3,4,5.1,5.2,8.1c1.2,3.1,1.8,6.4,1.8,9.9c0,3.4-0.6,6.6-1.8,9.6c-1.2,3-2.9,5.7-5.2,8.1c-2.3,2.4-5,4.3-8.2,5.6
			C308.8,374,305.2,374.7,301.2,374.7z M288.1,349.2c0,2.8,0.6,5.3,1.7,7.5s2.7,4,4.7,5.2s4.2,1.9,6.6,1.9s4.6-0.6,6.6-1.9
			s3.5-3,4.7-5.2s1.8-4.7,1.8-7.6c0-2.8-0.6-5.3-1.8-7.5c-1.2-2.2-2.7-3.9-4.7-5.2c-2-1.3-4.2-1.9-6.6-1.9s-4.6,0.6-6.6,1.9
			s-3.5,3-4.7,5.2C288.7,343.8,288.1,346.3,288.1,349.2z"/>
	</g>
</g>
<g>
	<g>
		<path class="st4" d="M85.3,210.9H66.1V261H54.5v-50.1H35.1v-10.3h50.2V210.9z"/>
		<path class="st4" d="M118.4,226.3c-3.5,0.1-6.6,0.7-9.4,2c-2.7,1.3-4.7,3.2-5.9,5.7v27H91.8v-44.1h10.5v9.1
			c1.6-3.1,3.6-5.5,6.1-7.2c2.5-1.8,5.1-2.7,7.8-2.9c0.6,0.1,1,0.1,1.4,0c0.3,0,0.7,0,0.9,0.1V226.3z"/>
		<path class="st4" d="M124.7,210.2V199H136v11.2H124.7z M124.7,261v-44.5H136V261H124.7z"/>
		<path class="st4" d="M187.8,261h-11.4v-24.6c0-3.5-0.6-6.1-1.8-7.7c-1.2-1.6-3-2.4-5.2-2.4c-1.5,0-3.1,0.4-4.6,1.2
			c-1.6,0.8-2.9,1.8-4.2,3.2c-1.2,1.4-2.2,2.9-2.8,4.7V261h-11.3v-44.1h10.3v8.2c1.1-1.9,2.6-3.5,4.3-4.8c1.8-1.3,3.8-2.3,6-3
			c2.3-0.7,4.7-1.1,7.3-1.1c2.8,0,5.1,0.5,6.8,1.5c1.8,1,3.1,2.3,4.1,4c0.9,1.7,1.6,3.5,2,5.6c0.4,2,0.6,4.1,0.6,6.2V261z"/>
		<path class="st4" d="M205,216.9l9.3,13.7l0.8,1.6l0.8-1.6l9.3-13.7h12l-15.5,22l15.7,22.1h-12l-9.5-13.7l-0.8-1.4l-0.7,1.4
			l-9.5,13.7h-12l15.7-21.9l-15.5-22.2H205z"/>
		<path class="st4" d="M243.8,269.7c1,0.2,2,0.4,2.8,0.6c0.9,0.1,1.6,0.2,2.3,0.3c1.1,0,2-0.3,2.7-0.8c0.7-0.5,1.4-1.5,2.1-2.9
			c0.7-1.4,1.4-3.3,2.1-5.7l-17.6-44.2H250l12,32.7l10.5-32.7h10.9l-18.7,53c-0.7,2-1.7,3.8-3.1,5.4c-1.4,1.6-3.1,2.9-5.1,3.8
			c-2,0.9-4.4,1.4-7,1.4c-0.9,0-1.8-0.1-2.7-0.2c-0.9-0.1-1.9-0.4-3-0.8V269.7z"/>
		<path class="st4" d="M316.3,261.8c-3.5,0-6.5-0.8-9.2-2.4c-2.7-1.6-4.7-3.6-6.2-6.2v25.8h-11.3v-62.2h9.9v7.6
			c1.7-2.6,3.9-4.6,6.5-6.1c2.6-1.5,5.6-2.2,8.9-2.2c3,0,5.8,0.6,8.3,1.8c2.5,1.2,4.7,2.8,6.6,4.9c1.9,2.1,3.4,4.5,4.4,7.3
			c1,2.7,1.5,5.7,1.5,8.7c0,4.3-0.8,8.1-2.5,11.6c-1.7,3.5-4,6.2-6.9,8.3C323.4,260.8,320.1,261.8,316.3,261.8z M312.5,252.2
			c1.7,0,3.3-0.4,4.7-1.1s2.7-1.7,3.7-2.9c1-1.2,1.8-2.7,2.4-4.3c0.6-1.6,0.9-3.3,0.9-5c0-1.8-0.3-3.5-0.9-5c-0.6-1.6-1.5-3-2.6-4.1
			c-1.1-1.2-2.5-2.1-4-2.8c-1.5-0.7-3.2-1-5-1c-1,0-2.1,0.2-3.2,0.5c-1.1,0.4-2.2,0.9-3.2,1.5c-1,0.7-1.9,1.4-2.6,2.3
			c-0.7,0.9-1.3,1.8-1.8,2.9v10.3c0.7,1.6,1.7,3.1,2.8,4.4c1.2,1.3,2.5,2.4,4,3.1C309.3,251.8,310.9,252.2,312.5,252.2z"/>
		<path class="st4" d="M364,261.8c-3.6,0-6.9-0.6-9.7-1.8c-2.9-1.2-5.3-2.9-7.4-5c-2-2.1-3.6-4.6-4.6-7.3c-1-2.7-1.6-5.6-1.6-8.6
			c0-3.1,0.5-6.1,1.6-8.8c1-2.7,2.6-5.2,4.6-7.3c2-2.1,4.5-3.8,7.4-5c2.9-1.2,6.1-1.8,9.7-1.8c3.7,0,7,0.6,9.8,1.8
			c2.9,1.2,5.3,2.9,7.4,5s3.6,4.5,4.7,7.3c1.1,2.7,1.6,5.7,1.6,8.8c0,3-0.5,5.9-1.6,8.6c-1.1,2.7-2.6,5.1-4.7,7.3
			c-2,2.1-4.5,3.8-7.4,5C370.9,261.2,367.7,261.8,364,261.8z M352.4,239.1c0,2.5,0.5,4.8,1.5,6.8c1,2,2.4,3.6,4.2,4.7
			c1.8,1.1,3.8,1.7,5.9,1.7c2.2,0,4.1-0.6,5.9-1.7c1.8-1.1,3.2-2.7,4.2-4.7c1-2,1.6-4.2,1.6-6.8c0-2.5-0.5-4.7-1.6-6.7
			c-1-2-2.5-3.5-4.2-4.7c-1.8-1.1-3.7-1.7-6-1.7c-2.2,0-4.1,0.6-5.9,1.7c-1.8,1.1-3.1,2.7-4.2,4.7
			C352.9,234.2,352.4,236.5,352.4,239.1z"/>
		<path class="st4" d="M411.4,261.8c-3.8,0-7.4-0.6-10.9-1.9c-3.5-1.2-6.4-3.1-8.9-5.5l4.2-7.4c2.6,2.2,5.2,3.7,7.7,4.8
			c2.6,1,5,1.5,7.5,1.5c2.2,0,4-0.4,5.3-1.1c1.3-0.8,2-1.9,2-3.4c0-1.1-0.4-2-1.1-2.6c-0.7-0.6-1.8-1.1-3.2-1.5
			c-1.4-0.4-3.1-0.9-5.1-1.5c-3.3-1-6-2-8.2-3.1c-2.2-1-3.8-2.3-5-3.9c-1.1-1.5-1.7-3.5-1.7-5.9c0-2.9,0.8-5.4,2.3-7.5
			c1.5-2.1,3.6-3.7,6.3-4.9c2.7-1.2,5.8-1.8,9.5-1.8c3.2,0,6.2,0.5,9,1.5c2.8,1,5.4,2.6,7.7,4.8l-4.7,7.3c-2.2-1.8-4.3-3.1-6.4-4
			c-2-0.8-4.1-1.2-6.2-1.2c-1.2,0-2.3,0.1-3.4,0.4c-1,0.3-1.9,0.7-2.5,1.4c-0.7,0.6-1,1.5-1,2.7c0,1,0.3,1.8,0.9,2.4
			c0.6,0.6,1.5,1.1,2.7,1.6c1.2,0.4,2.7,0.9,4.5,1.5c3.6,1,6.6,2,9,3.1c2.4,1,4.3,2.3,5.6,3.9c1.3,1.6,1.9,3.7,1.9,6.4
			c0,4.4-1.6,7.8-4.8,10.2C421.2,260.6,416.8,261.8,411.4,261.8z"/>
		<path class="st4" d="M463.7,258.8c-1,0.5-2.2,0.9-3.5,1.4c-1.3,0.5-2.8,0.9-4.3,1.2c-1.6,0.3-3.1,0.5-4.7,0.5
			c-2.2,0-4.1-0.4-5.9-1.1c-1.8-0.7-3.2-1.9-4.2-3.5c-1-1.6-1.6-3.7-1.6-6.3v-25.4h-5.8v-8.7h5.8v-14.4h11.5v14.4h9.3v8.7h-9.3v21.6
			c0.1,1.5,0.5,2.6,1.3,3.3c0.8,0.7,1.8,1,3.1,1c1.1,0,2.3-0.2,3.4-0.6c1.1-0.4,2.1-0.8,2.8-1.1L463.7,258.8z"/>
	</g>
</g>
</svg>
